<svg width="92" height="92" viewBox="0 0 92 92" fill="none" xmlns="http://www.w3.org/2000/svg">
<path d="M32.25 62.0417H60.8958C64.4097 62.0417 67.3889 60.7996 69.8333 58.3154C72.2777 55.8312 73.5 52.8719 73.5 49.4375C73.5 46 72.3343 43.0774 70.0029 40.6696C67.6715 38.2618 64.7886 36.983 61.3541 36.8333C60.3611 33.3958 58.4514 30.626 55.625 28.5237C52.7986 26.4215 49.5902 25.3719 46 25.375C42.868 25.375 40.0034 26.1954 37.4062 27.8362C34.809 29.4771 32.8611 31.7504 31.5625 34.6562C27.8958 34.809 24.802 36.2039 22.2812 38.8408C19.7604 41.4778 18.5 44.628 18.5 48.2917C18.5 52.1111 19.8368 55.3576 22.5104 58.0312C25.184 60.7049 28.4305 62.0417 32.25 62.0417ZM32.25 52.875C30.9513 52.875 29.862 52.435 28.982 51.555C28.102 50.675 27.6636 49.5872 27.6666 48.2917C27.6666 46.993 28.0868 45.9236 28.927 45.0833C29.7673 44.243 30.7986 43.7847 32.0208 43.7083H37.5208L39.8125 38.5521C40.4236 37.2535 41.2837 36.2604 42.3929 35.5729C43.502 34.8854 44.7044 34.5417 46 34.5417C47.5277 34.5417 48.9027 34.9817 50.125 35.8617C51.3472 36.7417 52.1493 37.944 52.5312 39.4687L54.3645 46H61.0104C62.0034 46 62.8055 46.3254 63.4166 46.9762C64.0277 47.6271 64.3333 48.4475 64.3333 49.4375C64.3333 50.3542 64.0094 51.1562 63.3616 51.8437C62.7139 52.5312 61.8919 52.875 60.8958 52.875H32.25ZM46 91.8333C39.6597 91.8333 33.7014 90.6294 28.125 88.2217C22.5486 85.8139 17.6979 82.549 13.5729 78.4271C9.44788 74.3021 6.18302 69.4514 3.77829 63.875C1.37357 58.2986 0.169682 52.3403 0.166626 46C0.166626 39.6597 1.37052 33.7014 3.77829 28.125C6.18607 22.5486 9.45093 17.6979 13.5729 13.5729C17.6979 9.44791 22.5486 6.18305 28.125 3.77832C33.7014 1.3736 39.6597 0.169712 46 0.166656C52.3402 0.166656 58.2986 1.37055 63.875 3.77832C69.4513 6.1861 74.302 9.45096 78.427 13.5729C82.552 17.6979 85.8184 22.5486 88.2262 28.125C90.634 33.7014 91.8364 39.6597 91.8333 46C91.8333 52.3403 90.6294 58.2986 88.2216 63.875C85.8139 69.4514 82.549 74.3021 78.427 78.4271C74.302 82.5521 69.4513 85.8185 63.875 88.2262C58.2986 90.634 52.3402 91.8364 46 91.8333Z" fill="url(#paint0_linear_10_3)"/>
<defs>
<linearGradient id="paint0_linear_10_3" x1="46" y1="0.166656" x2="46" y2="91.8333" gradientUnits="userSpaceOnUse">
<stop offset="0.609375" stop-color="#417BB1"/>
<stop offset="1" stop-color="#101753"/>
</linearGradient>
</defs>
</svg>
