<svg width="77" height="34" viewBox="0 0 77 34" fill="none" xmlns="http://www.w3.org/2000/svg">
<path opacity="0.3" d="M67.0207 16.75L63.8332 16.5209L63.2082 13.3959C62.6992 10.7968 61.3031 8.45538 59.2586 6.77191C57.2141 5.08844 54.6483 4.16754 51.9999 4.16669C47.7082 4.16669 43.8332 6.54169 41.8332 10.3334L40.7916 12.3125L38.5624 12.5417C36.5239 12.7679 34.6409 13.7397 33.2756 15.2703C31.9104 16.801 31.1592 18.7823 31.1666 20.8334C31.1666 25.4375 34.8957 29.1667 39.4999 29.1667H66.5832C70.0207 29.1667 72.8332 26.3542 72.8332 22.9167C72.8332 19.6875 70.2916 16.9584 67.0207 16.75Z" fill="#6384F9"/>
<path d="M67.3125 12.5833C66.6127 9.03691 64.7033 5.84346 61.9106 3.54843C59.1178 1.2534 55.6148 -0.000817172 52 3.99451e-07C45.9792 3.99451e-07 40.75 3.41667 38.1458 8.41667C35.0838 8.74757 32.2521 10.1983 30.1948 12.4903C28.1374 14.7822 26.9996 17.7535 27 20.8333C27 27.7292 32.6042 33.3333 39.5 33.3333H66.5833C72.3333 33.3333 77 28.6667 77 22.9167C77 17.4167 72.7292 12.9583 67.3125 12.5833ZM66.5833 29.1667H39.5C34.8958 29.1667 31.1667 25.4375 31.1667 20.8333C31.1667 16.5625 34.3542 13 38.5833 12.5625L40.8125 12.3333L41.8542 10.3542C42.8122 8.48912 44.2664 6.92461 46.0565 5.8329C47.8466 4.7412 49.9033 4.16462 52 4.16667C57.4583 4.16667 62.1667 8.04167 63.2292 13.3958L63.8542 16.5208L67.0417 16.75C68.6078 16.8553 70.0759 17.55 71.1505 18.6941C72.225 19.8383 72.8263 21.347 72.8333 22.9167C72.8333 26.3542 70.0208 29.1667 66.5833 29.1667Z" fill="white"/>
<path opacity="0.3" d="M40.0207 16.75L36.8332 16.5209L36.2082 13.3959C35.6992 10.7968 34.3031 8.45538 32.2586 6.77191C30.2141 5.08844 27.6483 4.16754 24.9999 4.16669C20.7082 4.16669 16.8332 6.54169 14.8332 10.3334L13.7916 12.3125L11.5624 12.5417C9.52385 12.7679 7.6409 13.7397 6.27563 15.2703C4.91037 16.801 4.15919 18.7823 4.16656 20.8334C4.16656 25.4375 7.89572 29.1667 12.4999 29.1667H39.5832C43.0207 29.1667 45.8332 26.3542 45.8332 22.9167C45.8332 19.6875 43.2916 16.9584 40.0207 16.75Z" fill="white"/>
<path d="M40.3125 12.5833C39.6127 9.03691 37.7033 5.84346 34.9106 3.54843C32.1178 1.2534 28.6148 -0.000817172 25 3.99451e-07C18.9792 3.99451e-07 13.75 3.41667 11.1458 8.41667C8.08382 8.74757 5.2521 10.1983 3.19477 12.4903C1.13744 14.7822 -0.000357712 17.7535 8.43599e-08 20.8333C8.43599e-08 27.7292 5.60417 33.3333 12.5 33.3333H39.5833C45.3333 33.3333 50 28.6667 50 22.9167C50 17.4167 45.7292 12.9583 40.3125 12.5833ZM39.5833 29.1667H12.5C7.89583 29.1667 4.16667 25.4375 4.16667 20.8333C4.16667 16.5625 7.35417 13 11.5833 12.5625L13.8125 12.3333L14.8542 10.3542C15.8122 8.48912 17.2664 6.92461 19.0565 5.8329C20.8466 4.7412 22.9033 4.16462 25 4.16667C30.4583 4.16667 35.1667 8.04167 36.2292 13.3958L36.8542 16.5208L40.0417 16.75C41.6078 16.8553 43.0759 17.55 44.1505 18.6941C45.225 19.8383 45.8263 21.347 45.8333 22.9167C45.8333 26.3542 43.0208 29.1667 39.5833 29.1667Z" fill="white"/>
</svg>
