<svg width="46" height="46" viewBox="0 0 46 46" fill="none" xmlns="http://www.w3.org/2000/svg">
<path d="M10.5208 7.84654L9.70833 7.03404C9.32074 6.64881 8.79647 6.43259 8.25 6.43259C7.70353 6.43259 7.17926 6.64881 6.79167 7.03404L6.77083 7.05487C6.57783 7.24554 6.4246 7.47263 6.32002 7.72296C6.21544 7.9733 6.16158 8.2419 6.16158 8.5132C6.16158 8.78451 6.21544 9.05311 6.32002 9.30344C6.4246 9.55378 6.57783 9.78086 6.77083 9.97154L7.58333 10.784C8.39583 11.5965 9.6875 11.5965 10.5 10.784L10.5208 10.7632C10.7138 10.5725 10.8671 10.3454 10.9716 10.0951C11.0762 9.84478 11.1301 9.57617 11.1301 9.30487C11.1301 9.03357 11.0762 8.76496 10.9716 8.51463C10.8671 8.2643 10.7138 8.03721 10.5208 7.84654ZM4.1875 21.0965H2.0625C0.916667 21.0965 0 22.0132 0 23.159V23.1799C0 24.3257 0.916667 25.2424 2.0625 25.2424H4.16667C5.33333 25.2632 6.25 24.3465 6.25 23.2007V23.1799C6.25 22.0132 5.33333 21.0965 4.1875 21.0965ZM22.9375 0.367371H22.9167C21.75 0.367371 20.8333 1.28404 20.8333 2.42987V4.42987C20.8333 5.5757 21.75 6.49237 22.8958 6.49237H22.9167C24.0833 6.5132 25 5.59654 25 4.4507V2.42987C25 1.28404 24.0833 0.367371 22.9375 0.367371ZM39.0625 7.05487C38.25 6.24237 36.9375 6.24237 36.125 7.03404L35.3125 7.84654C35.1195 8.03721 34.9663 8.2643 34.8617 8.51463C34.7571 8.76496 34.7032 9.03357 34.7032 9.30487C34.7032 9.57617 34.7571 9.84478 34.8617 10.0951C34.9663 10.3454 35.1195 10.5725 35.3125 10.7632L35.3333 10.784C36.1458 11.5965 37.4583 11.5965 38.25 10.784L39.0625 9.97154C39.2555 9.78086 39.4087 9.55378 39.5133 9.30344C39.6179 9.05311 39.6717 8.78451 39.6717 8.5132C39.6717 8.2419 39.6179 7.9733 39.5133 7.72296C39.4087 7.47263 39.2555 7.24554 39.0625 7.05487ZM35.2917 38.5132L36.1042 39.3257C36.4937 39.7152 37.022 39.9341 37.5729 39.9341C38.1238 39.9341 38.6521 39.7152 39.0417 39.3257C39.4312 38.9362 39.65 38.4078 39.65 37.857C39.65 37.3061 39.4312 36.7777 39.0417 36.3882L38.2292 35.5757C37.8416 35.1905 37.3173 34.9743 36.7708 34.9743C36.2244 34.9743 35.7001 35.1905 35.3125 35.5757C34.4792 36.409 34.4792 37.7007 35.2917 38.5132ZM39.5833 23.159V23.1799C39.5833 24.3257 40.5 25.2424 41.6458 25.2424H43.75C44.8958 25.2424 45.8125 24.3257 45.8125 23.1799V23.159C45.8125 22.0132 44.8958 21.0965 43.75 21.0965H41.6458C40.5 21.0965 39.5833 22.0132 39.5833 23.159ZM22.9167 10.6799C16.0208 10.6799 10.4167 16.284 10.4167 23.1799C10.4167 30.0757 16.0208 35.6799 22.9167 35.6799C29.8125 35.6799 35.4167 30.0757 35.4167 23.1799C35.4167 16.284 29.8125 10.6799 22.9167 10.6799ZM22.8958 45.9924H22.9167C24.0625 45.9924 24.9792 45.0757 24.9792 43.9299V41.9299C24.9792 40.784 24.0625 39.8674 22.9167 39.8674H22.8958C21.75 39.8674 20.8333 40.784 20.8333 41.9299V43.9299C20.8333 45.0757 21.75 45.9924 22.8958 45.9924ZM6.77083 39.3049C7.58333 40.1174 8.89583 40.1174 9.70833 39.3049L10.5208 38.4924C10.9061 38.1048 11.1223 37.5805 11.1223 37.034C11.1223 36.4876 10.9061 35.9633 10.5208 35.5757L10.5 35.5549C10.3073 35.3617 10.0783 35.2085 9.8263 35.104C9.57427 34.9994 9.3041 34.9456 9.03125 34.9456C8.7584 34.9456 8.48823 34.9994 8.2362 35.104C7.98417 35.2085 7.75524 35.3617 7.5625 35.5549L6.75 36.3674C5.95833 37.2007 5.95833 38.4924 6.77083 39.3049Z" fill="url(#paint0_linear_6_5)"/>
<defs>
<linearGradient id="paint0_linear_6_5" x1="33" y1="10" x2="14.5" y2="30" gradientUnits="userSpaceOnUse">
<stop offset="0.125" stop-color="#FEB241"/>
<stop offset="1" stop-color="#F7980B"/>
</linearGradient>
</defs>
</svg>
