<svg width="47" height="47" viewBox="0 0 47 47" fill="none" xmlns="http://www.w3.org/2000/svg">
<path d="M38.0703 11.8037C37.4172 8.70873 35.7878 5.90517 33.4219 3.80566C31.6672 2.2359 29.5663 1.10303 27.2906 0.499409C25.0149 -0.104216 22.6288 -0.161508 20.3267 0.332203C18.0247 0.825914 15.8719 1.85665 14.0439 3.34039C12.2158 4.82412 10.7643 6.71885 9.80762 8.87011C4.3457 9.19238 0 13.7324 0 19.2676C0 25.0117 4.67871 29.6846 10.4297 29.6846H17.4912L15.625 39.0596H20.3125V46.8721L31.25 32.8096H27.001L27.7822 29.6846H37.9229C40.2752 29.6751 42.5291 28.739 44.1961 27.0791C45.863 25.4192 46.8086 23.1693 46.828 20.817C46.8474 18.4646 45.939 16.1994 44.2997 14.5123C42.6604 12.8251 40.4222 11.852 38.0703 11.8037Z" fill="url(#paint0_linear_6_15)"/>
<defs>
<linearGradient id="paint0_linear_6_15" x1="23.4142" y1="0" x2="23.4142" y2="46.8721" gradientUnits="userSpaceOnUse">
<stop offset="0.489583" stop-color="white"/>
<stop offset="1" stop-color="#A96F00"/>
</linearGradient>
</defs>
</svg>
