<svg width="50" height="50" viewBox="0 0 50 50" fill="none" xmlns="http://www.w3.org/2000/svg">
<path d="M41.8736 12.5872C41.2246 9.31581 39.5462 6.33784 37.0836 4.08868C34.621 1.83952 31.5035 0.437141 28.1869 0.0865872C24.8702 -0.263966 21.5284 0.455692 18.65 2.14034C15.7717 3.82499 13.5077 6.38627 12.1892 9.44969C10.7106 9.27935 9.21275 9.41259 7.78741 9.84127C6.36206 10.2699 5.03921 10.985 3.89984 11.9427C2.76047 12.9004 1.82856 14.0806 1.16117 15.411C0.493772 16.7414 0.104938 18.194 0.0184722 19.6799C-0.067994 21.1658 0.149726 22.6537 0.658303 24.0526C1.16688 25.4514 1.95561 26.7317 2.97621 27.8151C3.9968 28.8985 5.22778 29.7622 6.59379 30.3533C7.95979 30.9444 9.43206 31.2505 10.9205 31.2528H40.608C42.9864 31.2555 45.277 30.3541 47.0157 28.7312C48.7545 27.1082 49.8113 24.8851 49.9722 22.512C50.1331 20.139 49.386 17.7935 47.8823 15.9507C46.3786 14.1079 44.2307 12.9056 41.8736 12.5872ZM26.5455 3.12781C29.6203 3.12717 32.5876 4.2599 34.8798 6.30941C37.172 8.35892 38.6284 11.1814 38.9705 14.2372C39.013 14.6211 39.1962 14.9757 39.4847 15.2325C39.7733 15.4893 40.1467 15.6302 40.533 15.6278H40.608C42.2656 15.6282 43.8551 16.2871 45.0269 17.4595C46.1987 18.6319 46.8568 20.2218 46.8564 21.8794C46.856 23.537 46.1971 25.1265 45.0247 26.2983C43.8523 27.4701 42.2625 28.1282 40.6048 28.1278H10.9205C9.81445 28.1273 8.72116 27.8919 7.7129 27.4372C6.70465 26.9826 5.80442 26.319 5.07177 25.4905C4.33912 24.6619 3.79074 23.6873 3.46292 22.6309C3.1351 21.5746 3.0353 20.4607 3.17012 19.363C3.30495 18.2652 3.67133 17.2085 4.24502 16.263C4.81872 15.3174 5.58665 14.5043 6.49802 13.8777C7.4094 13.2511 8.44344 12.8251 9.53175 12.6279C10.6201 12.4308 11.7378 12.467 12.8111 12.7341C13.194 12.8296 13.5989 12.7766 13.9443 12.5859C14.2898 12.3952 14.5504 12.0808 14.6736 11.7059C15.4995 9.2096 17.0911 7.03708 19.2224 5.49712C21.3537 3.95716 23.9161 3.12812 26.5455 3.12781ZM8.1861 35.1591C8.3933 35.1591 8.59201 35.2414 8.73853 35.3879C8.88504 35.5344 8.96735 35.7331 8.96735 35.9403V37.7216L10.533 36.8247C10.7124 36.7277 10.9227 36.7047 11.1189 36.7607C11.315 36.8167 11.4815 36.9473 11.5827 37.1244C11.6839 37.3015 11.7119 37.5112 11.6605 37.7086C11.6092 37.906 11.4826 38.0756 11.308 38.1809L9.7611 39.0653L11.308 39.9497C11.4826 40.0551 11.6092 40.2246 11.6605 40.422C11.7119 40.6194 11.6839 40.8291 11.5827 41.0062C11.4815 41.1834 11.315 41.3139 11.1189 41.3699C10.9227 41.4259 10.7124 41.4029 10.533 41.3059L8.96735 40.4122V42.1903C8.96735 42.3975 8.88504 42.5962 8.73853 42.7427C8.59201 42.8892 8.3933 42.9716 8.1861 42.9716C7.9789 42.9716 7.78018 42.8892 7.63367 42.7427C7.48716 42.5962 7.40485 42.3975 7.40485 42.1903V40.4091L5.83922 41.3059C5.65976 41.4029 5.44947 41.4259 5.25331 41.3699C5.05715 41.3139 4.89067 41.1834 4.78946 41.0062C4.68825 40.8291 4.66033 40.6194 4.71167 40.422C4.76302 40.2246 4.88955 40.0551 5.06422 39.9497L6.6111 39.0653L5.06422 38.1809C4.88955 38.0756 4.76302 37.906 4.71167 37.7086C4.66033 37.5112 4.68825 37.3015 4.78946 37.1244C4.89067 36.9473 5.05715 36.8167 5.25331 36.7607C5.44947 36.7047 5.65976 36.7277 5.83922 36.8247L7.40485 37.7184V35.9403C7.40485 35.7331 7.48716 35.5344 7.63367 35.3879C7.78018 35.2414 7.9789 35.1591 8.1861 35.1591ZM16.7798 41.4091C16.987 41.4091 17.1858 41.4914 17.3323 41.6379C17.4788 41.7844 17.5611 41.9831 17.5611 42.1903V43.9716L19.1267 43.0747C19.3062 42.9777 19.5165 42.9547 19.7126 43.0107C19.9088 43.0667 20.0753 43.1973 20.1765 43.3744C20.2777 43.5515 20.3056 43.7612 20.2543 43.9586C20.2029 44.156 20.0764 44.3256 19.9017 44.4309L18.3548 45.3153L19.9017 46.1997C20.0764 46.3051 20.2029 46.4746 20.2543 46.672C20.3056 46.8694 20.2777 47.0791 20.1765 47.2562C20.0753 47.4334 19.9088 47.5639 19.7126 47.6199C19.5165 47.6759 19.3062 47.6529 19.1267 47.5559L17.5611 46.6622V48.4403C17.5611 48.6475 17.4788 48.8462 17.3323 48.9927C17.1858 49.1392 16.987 49.2216 16.7798 49.2216C16.5726 49.2216 16.3739 49.1392 16.2274 48.9927C16.0809 48.8462 15.9986 48.6475 15.9986 48.4403V46.6591L14.433 47.5559C14.2535 47.6529 14.0432 47.6759 13.8471 47.6199C13.6509 47.5639 13.4844 47.4334 13.3832 47.2562C13.282 47.0791 13.2541 46.8694 13.3054 46.672C13.3568 46.4746 13.4833 46.3051 13.658 46.1997L15.2048 45.3153L13.658 44.4309C13.4833 44.3256 13.3568 44.156 13.3054 43.9586C13.2541 43.7612 13.282 43.5515 13.3832 43.3744C13.4844 43.1973 13.6509 43.0667 13.8471 43.0107C14.0432 42.9547 14.2535 42.9777 14.433 43.0747L15.9986 43.9684V42.1903C15.9986 41.9831 16.0809 41.7844 16.2274 41.6379C16.3739 41.4914 16.5726 41.4091 16.7798 41.4091ZM33.9674 41.4091C34.1746 41.4091 34.3733 41.4914 34.5198 41.6379C34.6663 41.7844 34.7486 41.9831 34.7486 42.1903V43.9716L36.3142 43.0747C36.4937 42.9777 36.704 42.9547 36.9001 43.0107C37.0963 43.0667 37.2628 43.1973 37.364 43.3744C37.4652 43.5515 37.4931 43.7612 37.4418 43.9586C37.3904 44.156 37.2639 44.3256 37.0892 44.4309L35.5423 45.3153L37.0892 46.1997C37.2639 46.3051 37.3904 46.4746 37.4418 46.672C37.4931 46.8694 37.4652 47.0791 37.364 47.2562C37.2628 47.4334 37.0963 47.5639 36.9001 47.6199C36.704 47.6759 36.4937 47.6529 36.3142 47.5559L34.7486 46.6622V48.4403C34.7486 48.6475 34.6663 48.8462 34.5198 48.9927C34.3733 49.1392 34.1746 49.2216 33.9674 49.2216C33.7601 49.2216 33.5614 49.1392 33.4149 48.9927C33.2684 48.8462 33.1861 48.6475 33.1861 48.4403V46.6591L31.6205 47.5559C31.441 47.6529 31.2307 47.6759 31.0346 47.6199C30.8384 47.5639 30.6719 47.4334 30.5707 47.2562C30.4695 47.0791 30.4416 46.8694 30.4929 46.672C30.5443 46.4746 30.6708 46.3051 30.8455 46.1997L32.3923 45.3153L30.8455 44.4309C30.6708 44.3256 30.5443 44.156 30.4929 43.9586C30.4416 43.7612 30.4695 43.5515 30.5707 43.3744C30.6719 43.1973 30.8384 43.0667 31.0346 43.0107C31.2307 42.9547 31.441 42.9777 31.6205 43.0747L33.1861 43.9684V42.1903C33.1861 41.9831 33.2684 41.7844 33.4149 41.6379C33.5614 41.4914 33.7601 41.4091 33.9674 41.4091ZM25.3736 35.1591C25.5808 35.1591 25.7795 35.2414 25.926 35.3879C26.0725 35.5344 26.1548 35.7331 26.1548 35.9403V37.7216L27.7205 36.8247C27.8999 36.7277 28.1102 36.7047 28.3064 36.7607C28.5025 36.8167 28.669 36.9473 28.7702 37.1244C28.8715 37.3015 28.8994 37.5112 28.848 37.7086C28.7967 37.906 28.6701 38.0756 28.4955 38.1809L26.9486 39.0653L28.4955 39.9497C28.6701 40.0551 28.7967 40.2246 28.848 40.422C28.8994 40.6194 28.8715 40.8291 28.7702 41.0062C28.669 41.1834 28.5025 41.3139 28.3064 41.3699C28.1102 41.4259 27.8999 41.4029 27.7205 41.3059L26.1548 40.4122V42.1903C26.1548 42.3975 26.0725 42.5962 25.926 42.7427C25.7795 42.8892 25.5808 42.9716 25.3736 42.9716C25.1664 42.9716 24.9677 42.8892 24.8212 42.7427C24.6747 42.5962 24.5923 42.3975 24.5923 42.1903V40.4091L23.0267 41.3059C22.8473 41.4029 22.637 41.4259 22.4408 41.3699C22.2446 41.3139 22.0782 41.1834 21.977 41.0062C21.8757 40.8291 21.8478 40.6194 21.8992 40.422C21.9505 40.2246 22.077 40.0551 22.2517 39.9497L23.7986 39.0653L22.2517 38.1809C22.077 38.0756 21.9505 37.906 21.8992 37.7086C21.8478 37.5112 21.8757 37.3015 21.977 37.1244C22.0782 36.9473 22.2446 36.8167 22.4408 36.7607C22.637 36.7047 22.8473 36.7277 23.0267 36.8247L24.5923 37.7184V35.9403C24.5923 35.7331 24.6747 35.5344 24.8212 35.3879C24.9677 35.2414 25.1664 35.1591 25.3736 35.1591ZM42.5611 35.1591C42.7683 35.1591 42.967 35.2414 43.1135 35.3879C43.26 35.5344 43.3424 35.7331 43.3424 35.9403V37.7216L44.908 36.8247C45.0874 36.7277 45.2977 36.7047 45.4939 36.7607C45.69 36.8167 45.8565 36.9473 45.9577 37.1244C46.0589 37.3015 46.0869 37.5112 46.0355 37.7086C45.9842 37.906 45.8576 38.0756 45.683 38.1809L44.1361 39.0653L45.683 39.9497C45.8576 40.0551 45.9842 40.2246 46.0355 40.422C46.0869 40.6194 46.0589 40.8291 45.9577 41.0062C45.8565 41.1834 45.69 41.3139 45.4939 41.3699C45.2977 41.4259 45.0874 41.4029 44.908 41.3059L43.3424 40.4122V42.1903C43.3424 42.3975 43.26 42.5962 43.1135 42.7427C42.967 42.8892 42.7683 42.9716 42.5611 42.9716C42.3539 42.9716 42.1552 42.8892 42.0087 42.7427C41.8622 42.5962 41.7799 42.3975 41.7799 42.1903V40.4091L40.2142 41.3059C40.0348 41.4029 39.8245 41.4259 39.6283 41.3699C39.4321 41.3139 39.2657 41.1834 39.1645 41.0062C39.0632 40.8291 39.0353 40.6194 39.0867 40.422C39.138 40.2246 39.2645 40.0551 39.4392 39.9497L40.9861 39.0653L39.4392 38.1809C39.2645 38.0756 39.138 37.906 39.0867 37.7086C39.0353 37.5112 39.0632 37.3015 39.1645 37.1244C39.2657 36.9473 39.4321 36.8167 39.6283 36.7607C39.8245 36.7047 40.0348 36.7277 40.2142 36.8247L41.7799 37.7184V35.9403C41.7799 35.7331 41.8622 35.5344 42.0087 35.3879C42.1552 35.2414 42.3539 35.1591 42.5611 35.1591Z" fill="url(#paint0_linear_6_7)"/>
<defs>
<linearGradient id="paint0_linear_6_7" x1="24.9969" y1="0" x2="24.9969" y2="49.2216" gradientUnits="userSpaceOnUse">
<stop offset="0.515625" stop-color="white"/>
<stop offset="1" stop-color="#000F96"/>
</linearGradient>
</defs>
</svg>
