<svg width="43" height="44" viewBox="0 0 43 44" fill="none" xmlns="http://www.w3.org/2000/svg">
<path d="M22.7083 44C21.8403 44 21.1021 43.7049 20.4938 43.1146C19.8854 42.5243 19.5819 41.7951 19.5833 40.9271C19.5833 40.5104 19.6618 40.1111 19.8188 39.7292C19.9757 39.3472 20.2097 39.0174 20.5208 38.7396L22.7083 36.7083L24.8958 38.7396C25.2083 39.0174 25.4431 39.3472 25.6 39.7292C25.7569 40.1111 25.8347 40.5104 25.8333 40.9271C25.8333 41.7951 25.5299 42.5243 24.9229 43.1146C24.316 43.7049 23.5778 44 22.7083 44ZM15.5208 40.875L13.3333 38.6875L19.4792 32.5417L21.6667 34.7292L15.5208 40.875ZM28.9583 37.75L25.8333 34.625L28.9583 31.5L32.0833 34.625L28.9583 37.75ZM10.2083 37.75L7.08334 34.625L10.2083 31.5L13.3333 34.625L10.2083 37.75ZM12.2917 29.4167C9.13195 29.4167 6.43195 28.2965 4.19167 26.0562C1.95139 23.816 0.831948 21.1167 0.833337 17.9583C0.833337 15.0764 1.7882 12.559 3.69792 10.4062C5.60764 8.25347 7.96875 6.98611 10.7813 6.60417C11.8924 4.625 13.4118 3.07083 15.3396 1.94167C17.2674 0.812499 19.3764 0.24861 21.6667 0.249999C24.7917 0.249999 27.509 1.24861 29.8188 3.24583C32.1285 5.24305 33.5257 7.73403 34.0104 10.7187C36.4062 10.9271 38.4201 11.9167 40.0521 13.6875C41.684 15.4583 42.5 17.5764 42.5 20.0417C42.5 22.6458 41.5889 24.8597 39.7667 26.6833C37.9444 28.5069 35.7306 29.4181 33.125 29.4167H12.2917Z" fill="url(#paint0_linear_6_3)"/>
<defs>
<linearGradient id="paint0_linear_6_3" x1="21.6666" y1="0.25" x2="21.6666" y2="44" gradientUnits="userSpaceOnUse">
<stop stop-color="white"/>
<stop offset="1" stop-color="#557AFC"/>
</linearGradient>
</defs>
</svg>
